<svg width="51" height="54" viewBox="0 0 51 54" fill="none" xmlns="http://www.w3.org/2000/svg">
<circle cx="25.0525" cy="28.7639" r="25.0525" fill="#D9D9D9"/>
<path d="M15.2588 29.8979H19.5888M10.9287 24.1245L13.8154 25.5678L15.6494 20.0659C16.028 18.9302 16.2172 18.3624 16.5683 17.9426C16.8783 17.5719 17.2765 17.2849 17.7262 17.108C18.2355 16.9077 18.834 16.9077 20.0311 16.9077H30.6934C31.8904 16.9077 32.489 16.9077 32.9983 17.108C33.448 17.2849 33.8461 17.5719 34.1562 17.9426C34.5072 18.3624 34.6965 18.9302 35.0751 20.0659L36.909 25.5678L39.7957 24.1245M31.1356 29.8979H35.4657M17.8568 25.5678H32.8677C35.2927 25.5678 36.5052 25.5678 37.4315 26.0398C38.2462 26.4549 38.9087 27.1173 39.3238 27.9321C39.7957 28.8583 39.7957 30.0709 39.7957 32.4959V36.393C39.7957 37.0636 39.7957 37.399 39.7403 37.6778C39.5125 38.8229 38.6173 39.7181 37.4722 39.9459C37.1934 40.0013 36.858 40.0013 36.1874 40.0013H35.4657C33.8714 40.0013 32.579 38.7089 32.579 37.1146C32.579 36.7161 32.2559 36.393 31.8573 36.393H18.8671C18.4686 36.393 18.1455 36.7161 18.1455 37.1146C18.1455 38.7089 16.853 40.0013 15.2588 40.0013H14.5371C13.8664 40.0013 13.5311 40.0013 13.2522 39.9459C12.1071 39.7181 11.212 38.8229 10.9842 37.6778C10.9287 37.399 10.9287 37.0636 10.9287 36.393V32.4959C10.9287 30.0709 10.9287 28.8583 11.4007 27.9321C11.8158 27.1173 12.4782 26.4549 13.293 26.0398C14.2192 25.5678 15.4317 25.5678 17.8568 25.5678Z" stroke="black" stroke-linecap="round" stroke-linejoin="round"/>
<g clip-path="url(#clip0_1399_1352)">
<path d="M43.3003 9.1101C44.5529 9.1101 45.5684 8.09043 45.5684 6.8326C45.5684 5.57478 44.5529 4.55511 43.3003 4.55511C42.0476 4.55511 41.0322 5.57478 41.0322 6.8326C41.0322 8.09043 42.0476 9.1101 43.3003 9.1101Z" stroke="#0DC964" stroke-linecap="round" stroke-linejoin="round"/>
<path d="M43.3003 15.9426C46.3245 12.9059 49.3486 10.1868 49.3486 6.8326C49.3486 3.4784 46.6407 0.759277 43.3003 0.759277C39.9599 0.759277 37.252 3.4784 37.252 6.8326C37.252 10.1868 40.2761 12.9059 43.3003 15.9426Z" stroke="#0DC964" stroke-linecap="round" stroke-linejoin="round"/>
</g>
<defs>
<clipPath id="clip0_1399_1352">
<rect width="13.6087" height="16.7016" fill="white" transform="translate(36.4961)"/>
</clipPath>
</defs>
</svg>
