<svg width="81" height="81" viewBox="0 0 81 81" fill="none" xmlns="http://www.w3.org/2000/svg">
<circle cx="40.5" cy="40.5" r="40.5" fill="#D9D9D9"/>
<path d="M23.0833 43.4167H30.3333M15.8333 33.7501L20.6666 36.1667L23.7373 26.9546C24.3711 25.0531 24.688 24.1024 25.2759 23.3995C25.7949 22.7787 26.4616 22.2983 27.2146 22.0021C28.0673 21.6667 29.0695 21.6667 31.0738 21.6667H48.926C50.9304 21.6667 51.9326 21.6667 52.7853 22.0021C53.5383 22.2983 54.2049 22.7787 54.724 23.3995C55.3118 24.1024 55.6287 25.0531 56.2625 26.9546L59.3332 36.1667L64.1666 33.7501M49.6666 43.4167H56.9166M27.4333 36.1667H52.5666C56.627 36.1667 58.6572 36.1667 60.208 36.957C61.5722 37.652 62.6813 38.7611 63.3764 40.1253C64.1666 41.6762 64.1666 43.7064 64.1666 47.7667V54.2917C64.1666 55.4147 64.1666 55.9761 64.0737 56.443C63.6923 58.3604 62.1935 59.8592 60.2762 60.2405C59.8093 60.3334 59.2478 60.3334 58.1249 60.3334H56.9166C54.2472 60.3334 52.0832 58.1695 52.0832 55.5001C52.0832 54.8327 51.5423 54.2917 50.8749 54.2917H29.1249C28.4576 54.2917 27.9166 54.8327 27.9166 55.5001C27.9166 58.1695 25.7526 60.3334 23.0833 60.3334H21.8749C20.752 60.3334 20.1905 60.3334 19.7236 60.2405C17.8063 59.8592 16.3075 58.3604 15.9261 56.443C15.8333 55.9761 15.8333 55.4147 15.8333 54.2917V47.7667C15.8333 43.7064 15.8333 41.6762 16.6235 40.1253C17.3185 38.7611 18.4276 37.652 19.7918 36.957C21.3427 36.1667 23.3729 36.1667 27.4333 36.1667Z" stroke="black" stroke-linecap="round" stroke-linejoin="round"/>
</svg>
