<svg width="83" height="87" viewBox="0 0 83 87" fill="none" xmlns="http://www.w3.org/2000/svg">
<circle cx="40.5" cy="46.5" r="40.5" fill="#D9D9D9"/>
<path d="M23.0833 49.4167H30.3333M15.8333 39.7501L20.6666 42.1667L23.7373 32.9546C24.3711 31.0531 24.688 30.1024 25.2759 29.3995C25.7949 28.7787 26.4616 28.2983 27.2146 28.0021C28.0673 27.6667 29.0695 27.6667 31.0738 27.6667H48.926C50.9304 27.6667 51.9326 27.6667 52.7853 28.0021C53.5383 28.2983 54.2049 28.7787 54.724 29.3995C55.3118 30.1024 55.6287 31.0531 56.2625 32.9546L59.3332 42.1667L64.1666 39.7501M49.6666 49.4167H56.9166M27.4333 42.1667H52.5666C56.627 42.1667 58.6572 42.1667 60.208 42.957C61.5722 43.652 62.6813 44.7611 63.3764 46.1253C64.1666 47.6762 64.1666 49.7064 64.1666 53.7667V60.2917C64.1666 61.4147 64.1666 61.9761 64.0737 62.443C63.6923 64.3604 62.1935 65.8592 60.2762 66.2405C59.8093 66.3334 59.2478 66.3334 58.1249 66.3334H56.9166C54.2472 66.3334 52.0832 64.1695 52.0832 61.5001C52.0832 60.8327 51.5423 60.2917 50.8749 60.2917H29.1249C28.4576 60.2917 27.9166 60.8327 27.9166 61.5001C27.9166 64.1695 25.7526 66.3334 23.0833 66.3334H21.8749C20.752 66.3334 20.1905 66.3334 19.7236 66.2405C17.8063 65.8592 16.3075 64.3604 15.9261 62.443C15.8333 61.9761 15.8333 61.4147 15.8333 60.2917V53.7667C15.8333 49.7064 15.8333 47.6762 16.6235 46.1253C17.3185 44.7611 18.4276 43.652 19.7918 42.957C21.3427 42.1667 23.3729 42.1667 27.4333 42.1667Z" stroke="black" stroke-linecap="round" stroke-linejoin="round"/>
<path d="M81.3208 17.4375L78.7382 14.8542L76.1541 17.4375M79.125 15.5C79.125 21.9203 73.9203 27.125 67.5 27.125C61.0797 27.125 55.875 21.9203 55.875 15.5C55.875 9.07969 61.0797 3.875 67.5 3.875C71.765 3.875 75.4935 6.17176 77.5162 9.59591M67.5 9.04167V15.5L71.375 18.0833" stroke="#60B876" stroke-width="2" stroke-linecap="round" stroke-linejoin="round"/>
</svg>
